<svg width="252" height="252" viewBox="0 0 252 252" fill="none" xmlns="http://www.w3.org/2000/svg">
<circle cx="36" cy="36" r="2" fill="#D2D6DB"/>
<circle cx="56" cy="36" r="2" fill="#D2D6DB"/>
<circle cx="76" cy="36" r="2" fill="#D2D6DB"/>
<circle cx="96" cy="36" r="2" fill="#D2D6DB"/>
<circle cx="116" cy="36" r="2" fill="#D2D6DB"/>
<circle cx="36" cy="56" r="2" fill="#D2D6DB"/>
<circle cx="56" cy="56" r="2" fill="#D2D6DB"/>
<circle cx="76" cy="56" r="2" fill="#D2D6DB"/>
<circle cx="96" cy="56" r="2" fill="#D2D6DB"/>
<circle cx="116" cy="56" r="2" fill="#D2D6DB"/>
<circle cx="36" cy="76" r="2" fill="#D2D6DB"/>
<circle cx="56" cy="76" r="2" fill="#D2D6DB"/>
<circle cx="76" cy="76" r="2" fill="#D2D6DB"/>
<circle cx="96" cy="76" r="2" fill="#D2D6DB"/>
<circle cx="116" cy="76" r="2" fill="#D2D6DB"/>
<circle cx="36" cy="96" r="2" fill="#D2D6DB"/>
<circle cx="56" cy="96" r="2" fill="#D2D6DB"/>
<circle cx="76" cy="96" r="2" fill="#D2D6DB"/>
<circle cx="96" cy="96" r="2" fill="#D2D6DB"/>
<circle cx="116" cy="96" r="2" fill="#D2D6DB"/>
<circle cx="36" cy="116" r="2" fill="#D2D6DB"/>
<circle cx="56" cy="116" r="2" fill="#D2D6DB"/>
<circle cx="76" cy="116" r="2" fill="#D2D6DB"/>
<circle cx="96" cy="116" r="2" fill="#D2D6DB"/>
<circle cx="116" cy="116" r="2" fill="#D2D6DB"/>
<circle cx="136" cy="136" r="2" fill="#FFCC80"/>
<circle cx="156" cy="136" r="2" fill="#FFCC80"/>
<circle cx="176" cy="136" r="2" fill="#FFCC80"/>
<circle cx="196" cy="136" r="2" fill="#FFCC80"/>
<circle cx="216" cy="136" r="2" fill="#FFCC80"/>
<circle cx="136" cy="156" r="2" fill="#FFCC80"/>
<circle cx="156" cy="156" r="2" fill="#FFCC80"/>
<circle cx="176" cy="156" r="2" fill="#FFCC80"/>
<circle cx="196" cy="156" r="2" fill="#FFCC80"/>
<circle cx="216" cy="156" r="2" fill="#FFCC80"/>
<circle cx="136" cy="176" r="2" fill="#FFCC80"/>
<circle cx="156" cy="176" r="2" fill="#FFCC80"/>
<circle cx="176" cy="176" r="2" fill="#FFCC80"/>
<circle cx="196" cy="176" r="2" fill="#FFCC80"/>
<circle cx="216" cy="176" r="2" fill="#FFCC80"/>
<circle cx="136" cy="196" r="2" fill="#FFCC80"/>
<circle cx="156" cy="196" r="2" fill="#FFCC80"/>
<circle cx="176" cy="196" r="2" fill="#FFCC80"/>
<circle cx="196" cy="196" r="2" fill="#FFCC80"/>
<circle cx="216" cy="196" r="2" fill="#FFCC80"/>
<circle cx="136" cy="216" r="2" fill="#FFCC80"/>
<circle cx="156" cy="216" r="2" fill="#FFCC80"/>
<circle cx="176" cy="216" r="2" fill="#FFCC80"/>
<circle cx="196" cy="216" r="2" fill="#FFCC80"/>
<circle cx="216" cy="216" r="2" fill="#FFCC80"/>
<circle cx="136" cy="36" r="4" fill="#B39DDB"/>
<circle cx="156" cy="36" r="4" fill="#B39DDB"/>
<circle cx="176" cy="36" r="4" fill="#B39DDB"/>
<circle cx="196" cy="36" r="4" fill="#B39DDB"/>
<circle cx="216" cy="36" r="4" fill="#B39DDB"/>
<circle cx="136" cy="56" r="4" fill="#B39DDB"/>
<circle cx="156" cy="56" r="4" fill="#B39DDB"/>
<circle cx="176" cy="56" r="4" fill="#B39DDB"/>
<circle cx="196" cy="56" r="4" fill="#B39DDB"/>
<circle cx="216" cy="56" r="4" fill="#B39DDB"/>
<circle cx="136" cy="76" r="4" fill="#B39DDB"/>
<circle cx="156" cy="76" r="4" fill="#B39DDB"/>
<circle cx="176" cy="76" r="4" fill="#B39DDB"/>
<circle cx="196" cy="76" r="4" fill="#B39DDB"/>
<circle cx="216" cy="76" r="4" fill="#B39DDB"/>
<circle cx="136" cy="96" r="4" fill="#B39DDB"/>
<circle cx="156" cy="96" r="4" fill="#B39DDB"/>
<circle cx="176" cy="96" r="4" fill="#B39DDB"/>
<circle cx="196" cy="96" r="4" fill="#B39DDB"/>
<circle cx="216" cy="96" r="4" fill="#B39DDB"/>
<circle cx="136" cy="116" r="4" fill="#B39DDB"/>
<circle cx="156" cy="116" r="4" fill="#B39DDB"/>
<circle cx="176" cy="116" r="4" fill="#B39DDB"/>
<circle cx="196" cy="116" r="4" fill="#B39DDB"/>
<circle cx="216" cy="116" r="4" fill="#B39DDB"/>
<circle cx="36" cy="136" r="4" fill="#F48FB1"/>
<circle cx="56" cy="136" r="4" fill="#F48FB1"/>
<circle cx="76" cy="136" r="4" fill="#F48FB1"/>
<circle cx="96" cy="136" r="4" fill="#F48FB1"/>
<circle cx="116" cy="136" r="4" fill="#F48FB1"/>
<circle cx="36" cy="156" r="4" fill="#F48FB1"/>
<circle cx="56" cy="156" r="4" fill="#F48FB1"/>
<circle cx="76" cy="156" r="4" fill="#F48FB1"/>
<circle cx="96" cy="156" r="4" fill="#F48FB1"/>
<circle cx="116" cy="156" r="4" fill="#F48FB1"/>
<circle cx="36" cy="176" r="4" fill="#F48FB1"/>
<circle cx="56" cy="176" r="4" fill="#F48FB1"/>
<circle cx="76" cy="176" r="4" fill="#F48FB1"/>
<circle cx="96" cy="176" r="4" fill="#F48FB1"/>
<circle cx="116" cy="176" r="4" fill="#F48FB1"/>
<circle cx="36" cy="196" r="4" fill="#F48FB1"/>
<circle cx="56" cy="196" r="4" fill="#F48FB1"/>
<circle cx="76" cy="196" r="4" fill="#F48FB1"/>
<circle cx="96" cy="196" r="4" fill="#F48FB1"/>
<circle cx="116" cy="196" r="4" fill="#F48FB1"/>
<circle cx="36" cy="216" r="4" fill="#F48FB1"/>
<circle cx="56" cy="216" r="4" fill="#F48FB1"/>
<circle cx="76" cy="216" r="4" fill="#F48FB1"/>
<circle cx="96" cy="216" r="4" fill="#F48FB1"/>
<circle cx="116" cy="216" r="4" fill="#F48FB1"/>
</svg>
